<svg width="35" height="35" viewBox="0 0 35 35" fill="none" xmlns="http://www.w3.org/2000/svg">
<g clip-path="url(#clip0_387_1949)">
<mask id="mask0_387_1949" style="mask-type:luminance" maskUnits="userSpaceOnUse" x="-7" y="-7" width="49" height="49">
<path d="M-7 -6.99996H42V42H-7V-6.99996Z" fill="white"/>
</mask>
<g mask="url(#mask0_387_1949)">
<path d="M35 17.5C35 7.83505 27.165 2.28882e-05 17.5 2.28882e-05C7.83503 2.28882e-05 0 7.83505 0 17.5C0 25.7072 5.65005 32.5935 13.2724 34.4847V22.8477H9.66378V17.5H13.2724V15.1957C13.2724 9.23924 15.968 6.47845 21.8158 6.47845C22.9244 6.47845 24.8375 6.6958 25.6201 6.91322V11.761C25.207 11.7175 24.4896 11.6958 23.5983 11.6958C20.7288 11.6958 19.6201 12.7827 19.6201 15.6087V17.5H25.3362L24.3543 22.8477H19.6201V34.8718C28.2851 33.8253 35 26.4473 35 17.5Z" fill="#0866FF"/>
<path d="M24.3541 22.8477L25.3361 17.5H19.62V15.6087C19.62 12.7826 20.7286 11.6958 23.5981 11.6958C24.4894 11.6958 25.2068 11.7175 25.6199 11.7609V6.91322C24.8373 6.6958 22.9242 6.47838 21.8156 6.47838C15.9678 6.47838 13.2722 9.23925 13.2722 15.1957V17.5H9.66357V22.8477H13.2722V34.4847C14.6262 34.8205 16.042 35 17.4998 35C18.2176 35 18.9249 34.9558 19.62 34.8718V22.8477H24.3541Z" fill="white"/>
</g>
</g>
<defs>
<clipPath id="clip0_387_1949">
<rect width="35" height="35" fill="white"/>
</clipPath>
</defs>
</svg>
