<svg xmlns="http://www.w3.org/2000/svg" width="200" height="200" viewBox="0 0 512 512">
    <path fill="#434657" fill-rule="evenodd"
        d="M422.401 217.174c-6.613-67.84-46.72-174.507-170.666-174.507c-123.947 0-164.054 106.667-170.667 174.507c-23.2 8.805-38.503 31.079-38.4 55.893v29.867c0 32.99 26.744 59.733 59.733 59.733c32.99 0 59.734-26.744 59.734-59.733v-29.867c-.108-24.279-14.848-46.095-37.334-55.253c4.267-39.254 25.174-132.48 126.934-132.48s122.453 93.226 126.72 132.48c-22.44 9.178-37.106 31.009-37.12 55.253v29.867a59.95 59.95 0 0 0 33.92 53.76c-8.96 16.853-31.787 39.68-87.894 46.506c-11.215-17.03-32.914-23.744-51.788-16.023c-18.873 7.72-29.646 27.717-25.71 47.725s21.48 34.432 41.872 34.432a42.67 42.67 0 0 0 37.973-23.68c91.52-10.454 120.747-57.6 129.92-85.334c24.817-8.039 41.508-31.301 41.173-57.386v-29.867c.103-24.814-15.2-47.088-38.4-55.893m-302.933 85.76c0 9.425-7.641 17.066-17.067 17.066s-17.066-7.64-17.066-17.066v-29.867a17.067 17.067 0 1 1 34.133 0zm264.533-29.867c0-9.426 7.641-17.067 17.067-17.067s17.067 7.641 17.067 17.067v29.867c0 9.425-7.641 17.066-17.067 17.066s-17.067-7.64-17.067-17.066z" />
</svg>